<svg width="173" height="38" viewBox="0 0 173 38" fill="none" xmlns="http://www.w3.org/2000/svg">
<path fill-rule="evenodd" clip-rule="evenodd" d="M99.6549 3.45453V33.2391H94.5021V30.4504C93.0807 32.6637 90.1494 33.6818 87.6175 33.6818C82.1538 33.6818 77.4011 29.4767 77.4011 22.882C77.4011 16.2424 82.1096 12.1259 87.5728 12.1259C90.1937 12.1259 93.0807 13.144 94.5021 15.3129V3.45453H99.6549ZM94.4136 22.8375C94.4136 19.2079 91.3931 16.9064 88.4168 16.9064C85.219 16.9064 82.5982 19.3849 82.5982 22.8375C82.5982 26.2901 85.219 28.8573 88.4168 28.8573C91.5708 28.8573 94.4136 26.4672 94.4136 22.8375ZM74.072 12.5686V33.2391H68.9192V30.4504C67.4978 32.6637 64.5661 33.6818 62.0345 33.6818C56.5709 33.6818 51.8182 29.4767 51.8182 22.882C51.8182 16.2424 56.5263 12.1259 61.9899 12.1259C64.6107 12.1259 67.4978 13.144 68.9192 15.3129V12.5686H74.072ZM68.8304 22.8375C68.8304 19.2078 65.8102 16.9063 62.8339 16.9063C59.6357 16.9063 57.0149 19.3849 57.0149 22.8375C57.0149 26.2901 59.6357 28.8573 62.8339 28.8573C65.9876 28.8573 68.8304 26.4672 68.8304 22.8375ZM123.419 12.5686L114.668 33.2391H109.96L101.298 12.5686H106.851L112.359 26.7325L117.822 12.5686H123.419ZM124.702 6.59703C124.702 4.78237 126.257 3.45453 128.078 3.45453C129.944 3.45453 131.41 4.78237 131.41 6.59703C131.41 8.36798 129.944 9.7399 128.078 9.7399C126.257 9.7399 124.702 8.36798 124.702 6.59703ZM125.502 33.2391H130.655V12.5687H125.502V33.2391ZM133.146 26.777H137.988C137.988 28.1933 139.232 29.5212 141.408 29.5212C143.452 29.5212 144.784 28.5916 144.784 27.2638C144.784 26.113 143.896 25.5818 142.341 25.2276L139.587 24.5196C134.923 23.2803 133.724 20.8017 133.724 18.1901C133.724 14.9587 136.922 12.1259 141.452 12.1259C145.139 12.1259 149.315 13.9409 149.27 18.5884H144.34C144.34 17.1279 143.052 16.2424 141.586 16.2424C139.987 16.2424 138.877 17.1279 138.877 18.4113C138.877 19.4735 139.898 20.0933 141.097 20.3589L144.429 21.2441C149.093 22.4393 149.937 25.3606 149.937 27.2638C149.937 31.4685 145.717 33.6818 141.497 33.6818C137.366 33.6818 133.235 31.2032 133.146 26.777ZM172.594 24.6967H156.559C157.136 27.5735 159.357 29.034 162.422 29.034C164.687 29.034 166.82 28.1489 168.063 26.4672L171.484 29.0785C169.574 32.0883 165.931 33.6818 162.156 33.6818C155.937 33.6818 151.229 29.3441 151.229 22.882C151.229 16.2869 156.204 12.1259 162.112 12.1259C168.063 12.1259 172.727 16.2424 172.727 22.7049C172.727 23.2803 172.683 23.9442 172.594 24.6967ZM167.575 21.1114C167.264 18.2782 165.087 16.6407 162.2 16.6407C159.402 16.6407 157.181 17.9685 156.559 21.1114H167.575Z" fill="white"/>
<path fill-rule="evenodd" clip-rule="evenodd" d="M44.3388 37.9996C44.7716 38.0153 45.0514 37.553 44.8334 37.185L22.9478 0.26897C22.7305 -0.0976108 22.1843 -0.0879639 21.9851 0.288621C20.1049 3.84688 19.0441 7.89106 19.0441 12.1775C19.0441 16.8087 20.2826 21.1558 22.4554 24.9142C26.8185 32.4755 34.9483 37.6587 44.3388 37.9996ZM0.571263 37.9996C8.65965 37.7055 15.8137 33.8175 20.4297 27.9115C20.5689 27.7332 20.5773 27.4881 20.4566 27.2969C17.6871 22.9044 16.0888 17.7241 16.0888 12.1775C16.0892 11.624 15.3449 11.4261 15.0615 11.9045L0.0755738 37.185C-0.142471 37.553 0.138444 38.0153 0.571263 37.9996Z" fill="#FF5800"/>
</svg>
